<?xml version="1.0" encoding="UTF-8" standalone="no"?>
<!-- Created with Inkscape (http://www.inkscape.org/) -->

<svg
   xmlns:dc="http://purl.org/dc/elements/1.1/"
   xmlns:cc="http://creativecommons.org/ns#"
   xmlns:rdf="http://www.w3.org/1999/02/22-rdf-syntax-ns#"
   xmlns:svg="http://www.w3.org/2000/svg"
   xmlns="http://www.w3.org/2000/svg"
   xmlns:sodipodi="http://sodipodi.sourceforge.net/DTD/sodipodi-0.dtd"
   xmlns:inkscape="http://www.inkscape.org/namespaces/inkscape"
   width="128"
   height="128"
   viewBox="0 0 33.866666 33.866668"
   version="1.1"
   id="svg5067"
   inkscape:version="0.92.1 r15371"
   sodipodi:docname="mekominus.svg">
  <defs
     id="defs5061" />
  <sodipodi:namedview
     id="base"
     pagecolor="#ffffff"
     bordercolor="#666666"
     borderopacity="1.0"
     inkscape:pageopacity="0.0"
     inkscape:pageshadow="2"
     inkscape:zoom="2.8"
     inkscape:cx="-11.554837"
     inkscape:cy="82.104865"
     inkscape:document-units="mm"
     inkscape:current-layer="layer1"
     showgrid="false"
     units="px"
     inkscape:pagecheckerboard="true"
     inkscape:window-width="1920"
     inkscape:window-height="1017"
     inkscape:window-x="-8"
     inkscape:window-y="-8"
     inkscape:window-maximized="1" />
  <metadata
     id="metadata5064">
    <rdf:RDF>
      <cc:Work
         rdf:about="">
        <dc:format>image/svg+xml</dc:format>
        <dc:type
           rdf:resource="http://purl.org/dc/dcmitype/StillImage" />
        <dc:title></dc:title>
      </cc:Work>
    </rdf:RDF>
  </metadata>
  <g
     inkscape:label="Layer 1"
     inkscape:groupmode="layer"
     id="layer1"
     transform="translate(0,-263.13332)">
    <g
       aria-label="MEKO"
       transform="scale(1.1606674,0.86157327)"
       style="font-style:normal;font-variant:normal;font-weight:normal;font-stretch:normal;font-size:19.14388466px;line-height:1.25;font-family:'League Gothic';-inkscape-font-specification:'League Gothic';font-variant-ligatures:normal;font-variant-caps:normal;font-variant-numeric:normal;font-feature-settings:normal;text-align:start;letter-spacing:0px;word-spacing:0px;writing-mode:lr-tb;text-anchor:start;fill:#4d4d4d;fill-opacity:1;stroke:none;stroke-width:0.5291667;stroke-miterlimit:4;stroke-dasharray:none"
       id="text6775">
      <path
         d="M 4.6212549,343.41223 3.3003268,334.56776 3.2237513,333.9743 H 3.108888 v 9.43793 H 1.1944995 v -14.07075 h 2.5269928 l 1.2252086,6.43234 0.095719,0.74661 h 0.038288 l 0.095719,-0.74661 1.2252087,-6.43234 h 2.5269927 v 14.07075 H 7.0142405 V 333.9743 H 6.8993772 l -0.076576,0.59346 -1.320928,8.84447 z"
         style="font-style:normal;font-variant:normal;font-weight:normal;font-stretch:normal;font-family:'League Gothic';-inkscape-font-specification:'League Gothic';fill:#4d4d4d;stroke:none;stroke-width:0.5291667;stroke-miterlimit:4;stroke-dasharray:none"
         id="path6804" />
      <path
         d="m 10.467319,329.34148 h 4.72854 v 2.12497 h -2.661 v 3.69477 h 1.914388 v 2.25898 h -1.914388 v 3.86706 h 2.661 v 2.12497 h -4.72854 z"
         style="font-style:normal;font-variant:normal;font-weight:normal;font-stretch:normal;font-family:'League Gothic';-inkscape-font-specification:'League Gothic';fill:#4d4d4d;stroke:none;stroke-width:0.5291667;stroke-miterlimit:4;stroke-dasharray:none"
         id="path6806" />
      <path
         d="m 18.405151,329.34148 v 4.91997 h 0.07658 l 0.09572,-0.22972 1.72295,-4.69025 h 2.010108 l -1.895245,4.63282 2.144115,9.43793 h -2.010108 l -1.435791,-6.12604 -0.05743,-0.28716 h -0.05743 l -0.114864,0.28716 -0.478597,1.14863 v 4.97741 h -2.067539 v -14.07075 z"
         style="font-style:normal;font-variant:normal;font-weight:normal;font-stretch:normal;font-family:'League Gothic';-inkscape-font-specification:'League Gothic';fill:#4d4d4d;stroke:none;stroke-width:0.5291667;stroke-miterlimit:4;stroke-dasharray:none"
         id="path6808" />
      <path
         d="m 28.896,340.5215 c -0.01914,0.57432 -0.134007,1.09121 -0.34459,1.53152 -0.172295,0.38287 -0.440309,0.74661 -0.823187,1.03377 -0.382877,0.3063 -0.899762,0.47859 -1.588942,0.47859 -0.68918,0 -1.225209,-0.17229 -1.608086,-0.47859 -0.382878,-0.28716 -0.631749,-0.6509 -0.804044,-1.03377 -0.210582,-0.44031 -0.325446,-0.9572 -0.34459,-1.53152 v -8.2893 c 0.01914,-0.55517 0.134008,-1.07205 0.34459,-1.51236 0.172295,-0.38288 0.421166,-0.76576 0.804044,-1.05292 0.382877,-0.28716 0.918906,-0.47859 1.608086,-0.47859 0.68918,0 1.206065,0.19143 1.588942,0.47859 0.382878,0.28716 0.650892,0.67004 0.823187,1.05292 0.210583,0.44031 0.325446,0.95719 0.34459,1.51236 z m -2.067539,-8.2893 c 0,-0.38287 -0.07658,-0.65089 -0.268015,-0.88062 -0.09572,-0.0957 -0.24887,-0.15315 -0.421165,-0.15315 -0.363734,0 -0.536029,0.26802 -0.612604,0.51689 -0.05743,0.15315 -0.07658,0.32544 -0.07658,0.51688 v 8.2893 c 0,0.40203 0.09572,0.67004 0.287158,0.88062 0.09572,0.0957 0.229727,0.15315 0.402022,0.15315 0.363734,0 0.536029,-0.22972 0.612604,-0.51688 0.05743,-0.13401 0.07658,-0.3063 0.07658,-0.51689 z"
         style="font-style:normal;font-variant:normal;font-weight:normal;font-stretch:normal;font-family:'League Gothic';-inkscape-font-specification:'League Gothic';fill:#4d4d4d;stroke:none;stroke-width:0.5291667;stroke-miterlimit:4;stroke-dasharray:none"
         id="path6810" />
    </g>
    <g
       aria-label="+"
       transform="scale(0.997053,1.0029557)"
       style="font-style:normal;font-variant:normal;font-weight:normal;font-stretch:normal;font-size:38.33698273px;line-height:1.25;font-family:'League Gothic';-inkscape-font-specification:'League Gothic, Normal';font-variant-ligatures:normal;font-variant-caps:normal;font-variant-numeric:normal;font-feature-settings:normal;text-align:start;letter-spacing:0px;word-spacing:0px;writing-mode:lr-tb;text-anchor:start;fill:#ffff00;fill-opacity:1;stroke:#808000;stroke-width:0.79374999;stroke-miterlimit:4;stroke-dasharray:none"
       id="text5614">
      <path
         style="fill:#ffff00;stroke:#808000;stroke-width:0.79374999;stroke-miterlimit:4;stroke-dasharray:none"
         d="m 8.4342357,270.83582 c 5.6994313,0 11.3988633,0 17.0982943,0 0,1.07344 0,2.14687 0,3.22031 -5.699431,0 -11.398863,0 -17.0982943,0 0,-1.07344 0,-2.14687 0,-3.22031 z"
         id="path6813"
         inkscape:connector-curvature="0" />
    </g>
    <g
       aria-label="MEKO"
       transform="scale(1.1606674,0.86157328)"
       style="font-style:normal;font-variant:normal;font-weight:normal;font-stretch:normal;font-size:19.14388466px;line-height:1.25;font-family:'League Gothic';-inkscape-font-specification:'League Gothic';font-variant-ligatures:normal;font-variant-caps:normal;font-variant-numeric:normal;font-feature-settings:normal;text-align:start;letter-spacing:0px;word-spacing:0px;writing-mode:lr-tb;text-anchor:start;fill:#000000;fill-opacity:1;stroke:none;stroke-width:0.5291667;stroke-miterlimit:4;stroke-dasharray:none"
       id="text5618">
      <path
         d="m 4.1653122,342.79803 -1.320928,-8.84447 -0.076576,-0.59346 H 2.6529454 v 9.43793 H 0.73855689 V 328.72728 H 3.2655497 l 1.2252086,6.43234 0.095719,0.74662 h 0.038288 l 0.095719,-0.74662 1.2252086,-6.43234 h 2.5269928 v 14.07075 H 6.5582978 V 333.3601 H 6.4434345 l -0.076576,0.59346 -1.3209281,8.84447 z"
         style="font-style:normal;font-variant:normal;font-weight:normal;font-stretch:normal;font-family:'League Gothic';-inkscape-font-specification:'League Gothic';fill:#000000;stroke:none;stroke-width:0.5291667;stroke-miterlimit:4;stroke-dasharray:none"
         id="path6795" />
      <path
         d="m 10.011376,328.72728 h 4.72854 v 2.12497 h -2.661 v 3.69477 h 1.914388 v 2.25898 h -1.914388 v 3.86706 h 2.661 v 2.12497 h -4.72854 z"
         style="font-style:normal;font-variant:normal;font-weight:normal;font-stretch:normal;font-family:'League Gothic';-inkscape-font-specification:'League Gothic';fill:#000000;stroke:none;stroke-width:0.5291667;stroke-miterlimit:4;stroke-dasharray:none"
         id="path6797" />
      <path
         d="m 17.949209,328.72728 v 4.91998 h 0.07658 l 0.09572,-0.22973 1.722949,-4.69025 h 2.010108 l -1.895244,4.63282 2.144115,9.43793 h -2.010108 l -1.435792,-6.12604 -0.05743,-0.28716 h -0.05743 l -0.114863,0.28716 -0.478597,1.14863 v 4.97741 h -2.06754 v -14.07075 z"
         style="font-style:normal;font-variant:normal;font-weight:normal;font-stretch:normal;font-family:'League Gothic';-inkscape-font-specification:'League Gothic';fill:#000000;stroke:none;stroke-width:0.5291667;stroke-miterlimit:4;stroke-dasharray:none"
         id="path6799" />
      <path
         d="m 28.440058,339.90731 c -0.01914,0.57431 -0.134008,1.0912 -0.34459,1.53151 -0.172295,0.38288 -0.44031,0.74661 -0.823187,1.03377 -0.382878,0.3063 -0.899763,0.4786 -1.588943,0.4786 -0.68918,0 -1.225208,-0.1723 -1.608086,-0.4786 -0.382878,-0.28716 -0.631748,-0.65089 -0.804043,-1.03377 -0.210583,-0.44031 -0.325446,-0.9572 -0.34459,-1.53151 v -8.2893 c 0.01914,-0.55518 0.134007,-1.07206 0.34459,-1.51237 0.172295,-0.38288 0.421165,-0.76576 0.804043,-1.05291 0.382878,-0.28716 0.918906,-0.4786 1.608086,-0.4786 0.68918,0 1.206065,0.19144 1.588943,0.4786 0.382877,0.28715 0.650892,0.67003 0.823187,1.05291 0.210582,0.44031 0.325446,0.95719 0.34459,1.51237 z m -2.06754,-8.2893 c 0,-0.38288 -0.07657,-0.6509 -0.268014,-0.88062 -0.09572,-0.0957 -0.248871,-0.15315 -0.421166,-0.15315 -0.363734,0 -0.536029,0.26801 -0.612604,0.51688 -0.05743,0.15315 -0.07658,0.32545 -0.07658,0.51689 v 8.2893 c 0,0.40202 0.09572,0.67003 0.287159,0.88062 0.09572,0.0957 0.229726,0.15315 0.402021,0.15315 0.363734,0 0.536029,-0.22973 0.612605,-0.51689 0.05743,-0.134 0.07657,-0.3063 0.07657,-0.51688 z"
         style="font-style:normal;font-variant:normal;font-weight:normal;font-stretch:normal;font-family:'League Gothic';-inkscape-font-specification:'League Gothic';fill:#000000;stroke:none;stroke-width:0.5291667;stroke-miterlimit:4;stroke-dasharray:none"
         id="path6801" />
    </g>
  </g>
</svg>
