<?xml version="1.0" encoding="UTF-8" standalone="no"?>
<!-- Created with Inkscape (http://www.inkscape.org/) -->

<svg
   xmlns:dc="http://purl.org/dc/elements/1.1/"
   xmlns:cc="http://creativecommons.org/ns#"
   xmlns:rdf="http://www.w3.org/1999/02/22-rdf-syntax-ns#"
   xmlns:svg="http://www.w3.org/2000/svg"
   xmlns="http://www.w3.org/2000/svg"
   xmlns:sodipodi="http://sodipodi.sourceforge.net/DTD/sodipodi-0.dtd"
   xmlns:inkscape="http://www.inkscape.org/namespaces/inkscape"
   width="128"
   height="128"
   viewBox="0 0 33.866666 33.866668"
   version="1.1"
   id="svg8"
   inkscape:version="0.92.1 r15371"
   sodipodi:docname="xor.svg">
  <defs
     id="defs2" />
  <sodipodi:namedview
     id="base"
     pagecolor="#ffffff"
     bordercolor="#666666"
     borderopacity="1.0"
     inkscape:pageopacity="0.0"
     inkscape:pageshadow="2"
     inkscape:zoom="0.9899495"
     inkscape:cx="47.139883"
     inkscape:cy="113.72578"
     inkscape:document-units="mm"
     inkscape:current-layer="layer1"
     showgrid="false"
     inkscape:pagecheckerboard="true"
     units="px"
     inkscape:window-width="1920"
     inkscape:window-height="1017"
     inkscape:window-x="-8"
     inkscape:window-y="-8"
     inkscape:window-maximized="1" />
  <metadata
     id="metadata5">
    <rdf:RDF>
      <cc:Work
         rdf:about="">
        <dc:format>image/svg+xml</dc:format>
        <dc:type
           rdf:resource="http://purl.org/dc/dcmitype/StillImage" />
        <dc:title></dc:title>
      </cc:Work>
    </rdf:RDF>
  </metadata>
  <g
     inkscape:label="Layer 1"
     inkscape:groupmode="layer"
     id="layer1"
     transform="translate(0,-263.13332)">
    <rect
       style="opacity:1;fill:#ffffff;fill-opacity:1;stroke:none;stroke-width:0.26458332;stroke-linecap:square;stroke-linejoin:round;stroke-miterlimit:4;stroke-dasharray:none;stroke-dashoffset:0;stroke-opacity:1"
       id="rect4504"
       width="33.866669"
       height="33.866665"
       x="0"
       y="263.1333" />
    <g
       aria-label="XOR"
       style="font-style:normal;font-variant:normal;font-weight:normal;font-stretch:normal;font-size:25.40479851px;line-height:1.25;font-family:'League Gothic';-inkscape-font-specification:'League Gothic, Normal';font-variant-ligatures:normal;font-variant-caps:normal;font-variant-numeric:normal;font-feature-settings:normal;text-align:start;letter-spacing:0px;word-spacing:0px;writing-mode:lr-tb;text-anchor:start;fill:#000000;fill-opacity:1;stroke:none;stroke-width:0.26458332"
       id="text4502">
      <path
         d="M 6.3409205,289.40289 H 3.6480118 l 3.023171,-9.80625 -2.9723614,-8.86627 h 2.6929087 l 1.4988831,4.72529 0.076214,0.22864 h 0.1016192 l 0.076214,-0.22864 1.4988831,-4.72529 h 2.6929087 l -2.9723615,8.86627 3.0231715,9.80625 H 9.6943539 l -1.5750975,-5.56365 -0.05081,-0.22864 H 7.9668276 l -0.05081,0.22864 z"
         style="fill:#000000;stroke:none;stroke-width:0.26458332"
         id="path4506" />
      <path
         d="m 20.729563,285.56677 c -0.0254,0.76214 -0.177833,1.44807 -0.457286,2.03238 -0.228643,0.5081 -0.584311,0.99079 -1.092407,1.37186 -0.508095,0.40648 -1.194025,0.63512 -2.108598,0.63512 -0.914573,0 -1.625907,-0.22864 -2.134003,-0.63512 -0.508096,-0.38107 -0.838358,-0.86376 -1.067001,-1.37186 -0.279453,-0.58431 -0.431882,-1.27024 -0.457287,-2.03238 v -11.00028 c 0.0254,-0.73674 0.177834,-1.42267 0.457287,-2.00698 0.228643,-0.50809 0.558905,-1.01619 1.067001,-1.39726 0.508096,-0.38107 1.21943,-0.63512 2.134003,-0.63512 0.914573,0 1.600503,0.25405 2.108598,0.63512 0.508096,0.38107 0.863764,0.88917 1.092407,1.39726 0.279453,0.58431 0.431881,1.27024 0.457286,2.00698 z m -2.743718,-11.00028 c 0,-0.5081 -0.101619,-0.86376 -0.355667,-1.16862 -0.127024,-0.12702 -0.330263,-0.20324 -0.558906,-0.20324 -0.482691,0 -0.711334,0.35567 -0.812953,0.68593 -0.07622,0.20324 -0.10162,0.43188 -0.10162,0.68593 v 11.00028 c 0,0.5335 0.127024,0.88917 0.381072,1.16862 0.127024,0.12702 0.304858,0.20324 0.533501,0.20324 0.482691,0 0.711335,-0.30486 0.812954,-0.68593 0.07621,-0.17784 0.101619,-0.40648 0.101619,-0.68593 z"
         style="fill:#000000;stroke:none;stroke-width:0.26458332"
         id="path4508" />
      <path
         d="m 27.474935,289.40289 -1.422669,-7.87548 h -0.736739 v 7.87548 h -2.743718 v -18.67252 h 2.743718 c 3.277219,0 4.674483,1.85455 4.674483,5.38581 0,1.85455 -0.482691,3.53127 -1.524288,4.2426 l 1.752931,9.04411 z m -2.159408,-10.41596 c 0.381072,0 0.889168,-0.0508 1.295645,-0.40648 0.406477,-0.35567 0.736739,-1.0416 0.736739,-2.36265 0,-1.32105 -0.330262,-2.03238 -0.736739,-2.38805 -0.406477,-0.35567 -0.914573,-0.38107 -1.295645,-0.38107 z"
         style="fill:#000000;stroke:none;stroke-width:0.26458332"
         id="path4510" />
    </g>
  </g>
</svg>
